<?xml version="1.0" encoding="utf-8"?>
<!-- Generator: Adobe Illustrator 23.0.3, SVG Export Plug-In . SVG Version: 6.00 Build 0)  -->
<svg version="1.1" id="Layer_1" xmlns="http://www.w3.org/2000/svg" xmlns:xlink="http://www.w3.org/1999/xlink" x="0px" y="0px"
	 viewBox="0 0 286 94" style="enable-background:new 0 0 286 94;" xml:space="preserve">
<style type="text/css">
	.st0{fill:#D6D6D6;}
	.st1{fill:#E2E2E2;}
	.st2{fill:#FAFAFA;}
	.st3{fill:#1DCF38;}
	.st4{fill:#1EDB3B;}
	.st5{fill:#1BC635;}
	.st6{display:none;}
	.st7{display:inline;}
	.st8{fill:#FFFFFF;}
	.st9{font-family:'Corbel-Bold';}
	.st10{font-size:40px;}
</style>
<g>
	<g>
		<g>
			<g>
				<path id="Stick_Outer" class="st0" d="M47,92.5C21.9,92.5,1.5,72.1,1.5,47S21.9,1.5,47,1.5S92.5,21.9,92.5,47S72.1,92.5,47,92.5
					z"/>
				<g>
					<path id="Stick_Border" class="st1" d="M47,3c24.3,0,44,19.7,44,44S71.3,91,47,91S3,71.3,3,47S22.7,3,47,3 M47,0
						C21,0,0,21,0,47s21,47,47,47s47-21,47-47S73,0,47,0L47,0z"/>
				</g>
			</g>
			<circle id="Stick_Inner" class="st2" cx="47" cy="47" r="27.3"/>
		</g>
	</g>
	<g>
		<g>
			<path id="Active_Left_Stick_Outer" class="st3" d="M143,92.5c-25.1,0-45.5-20.4-45.5-45.5S117.9,1.5,143,1.5s45.5,20.4,45.5,45.5
				S168.1,92.5,143,92.5z"/>
			<g>
				<path id="Active_Left_Stick_Border" class="st4" d="M143,3c24.3,0,44,19.7,44,44s-19.7,44-44,44S99,71.3,99,47S118.7,3,143,3
					 M143,0c-26,0-47,21-47,47s21,47,47,47s47-21,47-47S169,0,143,0L143,0z"/>
			</g>
		</g>
		<circle id="Active_Left_Stick_Inner" class="st5" cx="143" cy="47" r="27.3"/>
		<g id="Active_Left_Stick_Text_Group" class="st6">
			<path class="st7" d="M125.1,33.5h4.6v22.4h13.4v4h-18C125.1,59.9,125.1,33.5,125.1,33.5z"/>
			<path class="st7" d="M151.9,44.8c2.8,0.1,5.7-0.9,5.7-4.1c0-2.2-1.7-3.7-4-3.7c-2.9,0-4.4,2.6-4.3,5.3h-4.2
				c0.2-5,3.4-8.8,8.6-8.8c4,0,8.2,2.3,8.2,6.9c0,2.6-1.1,4.7-3.7,5.5V46c3,0.6,4.7,3.1,4.7,6.5c0,4.9-4.3,7.9-9.2,7.9
				c-6,0-9-3.6-9.1-9h4.2c-0.1,3.1,1.6,5.5,4.9,5.5c2.8,0,5-1.7,5-4.6c0-4-3.4-4.5-6.8-4.4L151.9,44.8L151.9,44.8z"/>
		</g>
		<text transform="matrix(1 0 0 1 107.4435 58.7282)" class="st8 st9 st10">CBT</text>
	</g>
	<g>
		<g>
			<path id="Active_Right_Stick_Outer" class="st3" d="M239,92.5c-25.1,0-45.5-20.4-45.5-45.5S213.9,1.5,239,1.5
				s45.5,20.4,45.5,45.5S264.1,92.5,239,92.5z"/>
			<g>
				<path id="Active_Right_Stick_Border" class="st4" d="M239,3c24.3,0,44,19.7,44,44s-19.7,44-44,44s-44-19.7-44-44S214.7,3,239,3
					 M239,0c-26,0-47,21-47,47s21,47,47,47s47-21,47-47S265,0,239,0L239,0z"/>
			</g>
		</g>
		
			<ellipse id="Active_Right_Stick_Inner" transform="matrix(0.3417 -0.9398 0.9398 0.3417 113.1437 255.5513)" class="st5" cx="239" cy="47" rx="27.3" ry="27.3"/>
		<g id="Active_Right_Stick_Text_Group" class="st6">
			<path class="st7" d="M218.7,33.5h12.6c5.8,0,8.7,2.7,8.7,7.1c0,5.1-3.5,6.4-4.4,6.7v0.1c1.6,0.2,3.9,1.4,3.9,5.6
				c0,3.1,0.4,5.9,1.4,7h-5c-0.7-1.1-0.7-2.6-0.7-3.9c0-4.8-1-7-5.3-7h-6.8V60h-4.6V33.5H218.7z M223.3,45.6h7.6
				c3,0,4.5-1.4,4.5-4.2c0-3.4-2.2-4-4.6-4h-7.5V45.6z"/>
			<path class="st7" d="M250.3,44.8c2.8,0.1,5.7-0.9,5.7-4.1c0-2.2-1.7-3.7-4-3.7c-2.9,0-4.4,2.6-4.3,5.3h-4.2
				c0.2-5,3.4-8.8,8.6-8.8c4,0,8.2,2.3,8.2,6.9c0,2.6-1.1,4.7-3.7,5.5V46c3,0.6,4.7,3.1,4.7,6.5c0,4.9-4.3,7.9-9.2,7.9
				c-6,0-9-3.6-9.1-9h4.2c-0.1,3.1,1.6,5.5,4.9,5.5c2.8,0,5-1.7,5-4.6c0-4-3.4-4.5-6.8-4.4V44.8L250.3,44.8z"/>
		</g>
		<text transform="matrix(1 0 0 1 203.443 58.7282)" class="st8 st9 st10">CBT</text>
	</g>
</g>
</svg>
