<?xml version="1.0" encoding="utf-8"?>
<!-- Generator: Adobe Illustrator 23.0.3, SVG Export Plug-In . SVG Version: 6.00 Build 0)  -->
<svg version="1.1" id="Layer_1" xmlns="http://www.w3.org/2000/svg" xmlns:xlink="http://www.w3.org/1999/xlink" x="0px" y="0px"
	 width="286px" height="94px" viewBox="0 0 286 94" style="enable-background:new 0 0 286 94;" xml:space="preserve">
<style type="text/css">
	.st0{fill:#D6D6D6;}
	.st1{fill:#E2E2E2;}
	.st2{fill:#FAFAFA;}
	.st3{fill:#1DCF38;}
	.st4{fill:#1EDB3B;}
	.st5{fill:#1BC635;}
	.st6{display:none;}
	.st7{display:inline;}
	.st8{fill:#FFFFFF;}
</style>
<g>
	<g>
		<g>
			<g>
				<path id="Stick_Outer" class="st0" d="M47,92.5C21.9,92.5,1.5,72.1,1.5,47S21.9,1.5,47,1.5S92.5,21.9,92.5,47S72.1,92.5,47,92.5
					z"/>
				<g>
					<path id="Stick_Border" class="st1" d="M47,3c24.3,0,44,19.7,44,44S71.3,91,47,91S3,71.3,3,47S22.7,3,47,3 M47,0
						C21,0,0,21,0,47s21,47,47,47s47-21,47-47S73,0,47,0L47,0z"/>
				</g>
			</g>
			<circle id="Stick_Inner" class="st2" cx="47" cy="47" r="27.3"/>
		</g>
	</g>
	<g>
		<g>
			<path id="Active_Left_Stick_Outer" class="st3" d="M143,92.5c-25.1,0-45.5-20.4-45.5-45.5S117.9,1.5,143,1.5s45.5,20.4,45.5,45.5
				S168.1,92.5,143,92.5z"/>
			<g>
				<path id="Active_Left_Stick_Border" class="st4" d="M143,3c24.3,0,44,19.7,44,44s-19.7,44-44,44S99,71.3,99,47S118.7,3,143,3
					 M143,0c-26,0-47,21-47,47s21,47,47,47s47-21,47-47S169,0,143,0L143,0z"/>
			</g>
		</g>
		<circle id="Active_Left_Stick_Inner" class="st5" cx="143" cy="47" r="27.3"/>
		<g id="Active_Left_Stick_Text_Group" class="st6">
			<path class="st7" d="M125.1,33.5h4.6v22.4h13.4v4h-18C125.1,59.9,125.1,33.5,125.1,33.5z"/>
			<path class="st7" d="M151.9,44.8c2.8,0.1,5.7-0.9,5.7-4.1c0-2.2-1.7-3.7-4-3.7c-2.9,0-4.4,2.6-4.3,5.3h-4.2
				c0.2-5,3.4-8.8,8.6-8.8c4,0,8.2,2.3,8.2,6.9c0,2.6-1.1,4.7-3.7,5.5V46c3,0.6,4.7,3.1,4.7,6.5c0,4.9-4.3,7.9-9.2,7.9
				c-6,0-9-3.6-9.1-9h4.2c-0.1,3.1,1.6,5.5,4.9,5.5c2.8,0,5-1.7,5-4.6c0-4-3.4-4.5-6.8-4.4L151.9,44.8L151.9,44.8z"/>
		</g>
		<g>
			<path class="st8" d="M123.3,36.1c-1.3,0-2.5,0.2-3.6,0.6c-1.1,0.4-2,1.1-2.8,1.9c-0.8,0.8-1.4,1.8-1.8,3
				c-0.4,1.2-0.7,2.6-0.7,4.1c0,1.5,0.2,2.9,0.6,4.1c0.4,1.2,1,2.1,1.7,2.9c0.8,0.8,1.7,1.4,2.8,1.8c1.1,0.4,2.3,0.6,3.7,0.6
				c1,0,2-0.1,3-0.2c1-0.2,2-0.4,2.9-0.7v4.1c-0.9,0.3-1.9,0.5-2.9,0.6c-1.1,0.1-2.1,0.2-3.3,0.2c-2.2,0-4.2-0.3-5.8-0.9
				c-1.7-0.6-3.1-1.5-4.2-2.7c-1.1-1.2-2-2.5-2.5-4.1s-0.8-3.4-0.8-5.3c0-2,0.3-3.8,0.9-5.5c0.6-1.7,1.5-3.2,2.6-4.4
				c1.1-1.3,2.6-2.2,4.3-2.9c1.7-0.7,3.6-1.1,5.8-1.1c1.1,0,2.2,0.1,3.1,0.2c1,0.1,1.9,0.4,2.7,0.6V37c-1-0.3-2-0.6-2.9-0.7
				C125,36.2,124.1,36.1,123.3,36.1z"/>
			<path class="st8" d="M152.9,39.5c0,1.1-0.3,2.2-0.8,3.1c-0.5,0.9-1.3,1.7-2.5,2.4v0.1c0.7,0.2,1.2,0.5,1.8,0.8
				c0.5,0.3,1,0.8,1.4,1.2c0.4,0.5,0.7,1,0.9,1.6s0.3,1.3,0.3,2c0,0.6-0.1,1.3-0.3,2.1s-0.6,1.4-1.1,2.1s-1.2,1.3-2,1.9
				s-1.9,1-3.2,1.4c-0.3,0.1-0.7,0.1-1.1,0.2s-0.8,0.1-1.3,0.2s-1,0.1-1.6,0.1s-1.2,0-1.9,0h-7.6V32.6h9.1c1.9,0,3.5,0.2,4.7,0.6
				c0.9,0.3,1.7,0.7,2.3,1.1c0.7,0.5,1.2,1,1.6,1.5s0.7,1.2,0.9,1.8C152.8,38.3,152.9,38.9,152.9,39.5z M143,43.4
				c1.3,0,2.3-0.1,2.9-0.4c0.7-0.3,1.2-0.7,1.5-1.2s0.5-1.1,0.5-1.8c0-0.7-0.2-1.3-0.5-1.8c-0.4-0.5-1-0.9-1.8-1.2
				c-0.4-0.1-0.8-0.2-1.2-0.2c-0.5,0-1-0.1-1.7-0.1h-3.9v6.8H143z M138.7,47.4v7.4h3.1c0.8,0,1.5,0,2.1-0.1s1.1-0.1,1.5-0.2
				c0.7-0.1,1.2-0.3,1.7-0.6s0.8-0.5,1.1-0.8s0.5-0.6,0.6-1s0.2-0.8,0.2-1.2c0-0.7-0.2-1.4-0.6-1.9s-1-1-1.9-1.2
				c-0.4-0.1-0.8-0.2-1.3-0.3c-0.5-0.1-1.2-0.1-2-0.1H138.7z"/>
			<path class="st8" d="M169.6,58.7h-4.8V36.6h-8.4v-4H178v4h-8.4V58.7z"/>
		</g>
	</g>
	<g>
		<g>
			<path id="Active_Right_Stick_Outer" class="st3" d="M239,92.5c-25.1,0-45.5-20.4-45.5-45.5S213.9,1.5,239,1.5
				s45.5,20.4,45.5,45.5S264.1,92.5,239,92.5z"/>
			<g>
				<path id="Active_Right_Stick_Border" class="st4" d="M239,3c24.3,0,44,19.7,44,44s-19.7,44-44,44s-44-19.7-44-44S214.7,3,239,3
					 M239,0c-26,0-47,21-47,47s21,47,47,47s47-21,47-47S265,0,239,0L239,0z"/>
			</g>
		</g>
		
			<ellipse id="Active_Right_Stick_Inner" transform="matrix(0.3417 -0.9398 0.9398 0.3417 113.1437 255.5513)" class="st5" cx="239" cy="47" rx="27.3" ry="27.3"/>
		<g id="Active_Right_Stick_Text_Group" class="st6">
			<path class="st7" d="M218.7,33.5h12.6c5.8,0,8.7,2.7,8.7,7.1c0,5.1-3.5,6.4-4.4,6.7v0.1c1.6,0.2,3.9,1.4,3.9,5.6
				c0,3.1,0.4,5.9,1.4,7h-5c-0.7-1.1-0.7-2.6-0.7-3.9c0-4.8-1-7-5.3-7h-6.8V60h-4.6V33.5H218.7z M223.3,45.6h7.6
				c3,0,4.5-1.4,4.5-4.2c0-3.4-2.2-4-4.6-4h-7.5V45.6z"/>
			<path class="st7" d="M250.3,44.8c2.8,0.1,5.7-0.9,5.7-4.1c0-2.2-1.7-3.7-4-3.7c-2.9,0-4.4,2.6-4.3,5.3h-4.2
				c0.2-5,3.4-8.8,8.6-8.8c4,0,8.2,2.3,8.2,6.9c0,2.6-1.1,4.7-3.7,5.5V46c3,0.6,4.7,3.1,4.7,6.5c0,4.9-4.3,7.9-9.2,7.9
				c-6,0-9-3.6-9.1-9h4.2c-0.1,3.1,1.6,5.5,4.9,5.5c2.8,0,5-1.7,5-4.6c0-4-3.4-4.5-6.8-4.4V44.8L250.3,44.8z"/>
		</g>
		<g>
			<path class="st8" d="M219.3,36.1c-1.3,0-2.5,0.2-3.6,0.6c-1.1,0.4-2,1.1-2.8,1.9c-0.8,0.8-1.4,1.8-1.8,3
				c-0.4,1.2-0.7,2.6-0.7,4.1c0,1.5,0.2,2.9,0.6,4.1c0.4,1.2,1,2.1,1.7,2.9c0.8,0.8,1.7,1.4,2.8,1.8c1.1,0.4,2.3,0.6,3.7,0.6
				c1,0,2-0.1,3-0.2c1-0.2,2-0.4,2.9-0.7v4.1c-0.9,0.3-1.9,0.5-2.9,0.6c-1.1,0.1-2.1,0.2-3.3,0.2c-2.2,0-4.2-0.3-5.8-0.9
				c-1.7-0.6-3.1-1.5-4.2-2.7c-1.1-1.2-2-2.5-2.5-4.1s-0.8-3.4-0.8-5.3c0-2,0.3-3.8,0.9-5.5c0.6-1.7,1.5-3.2,2.6-4.4
				c1.1-1.3,2.6-2.2,4.3-2.9c1.7-0.7,3.6-1.1,5.8-1.1c1.1,0,2.2,0.1,3.1,0.2c1,0.1,1.9,0.4,2.7,0.6V37c-1-0.3-2-0.6-2.9-0.7
				C221,36.2,220.1,36.1,219.3,36.1z"/>
			<path class="st8" d="M248.9,39.5c0,1.1-0.3,2.2-0.8,3.1c-0.5,0.9-1.3,1.7-2.5,2.4v0.1c0.7,0.2,1.2,0.5,1.8,0.8
				c0.5,0.3,1,0.8,1.4,1.2c0.4,0.5,0.7,1,0.9,1.6s0.3,1.3,0.3,2c0,0.6-0.1,1.3-0.3,2.1s-0.6,1.4-1.1,2.1s-1.2,1.3-2,1.9
				s-1.9,1-3.2,1.4c-0.3,0.1-0.7,0.1-1.1,0.2s-0.8,0.1-1.3,0.2s-1,0.1-1.6,0.1s-1.2,0-1.9,0h-7.6V32.6h9.1c1.9,0,3.5,0.2,4.7,0.6
				c0.9,0.3,1.7,0.7,2.3,1.1c0.7,0.5,1.2,1,1.6,1.5s0.7,1.2,0.9,1.8C248.8,38.3,248.9,38.9,248.9,39.5z M239,43.4
				c1.3,0,2.3-0.1,2.9-0.4c0.7-0.3,1.2-0.7,1.5-1.2s0.5-1.1,0.5-1.8c0-0.7-0.2-1.3-0.5-1.8c-0.4-0.5-1-0.9-1.8-1.2
				c-0.4-0.1-0.8-0.2-1.2-0.2c-0.5,0-1-0.1-1.7-0.1h-3.9v6.8H239z M234.7,47.4v7.4h3.1c0.8,0,1.5,0,2.1-0.1s1.1-0.1,1.5-0.2
				c0.7-0.1,1.2-0.3,1.7-0.6s0.8-0.5,1.1-0.8s0.5-0.6,0.6-1s0.2-0.8,0.2-1.2c0-0.7-0.2-1.4-0.6-1.9s-1-1-1.9-1.2
				c-0.4-0.1-0.8-0.2-1.3-0.3c-0.5-0.1-1.2-0.1-2-0.1H234.7z"/>
			<path class="st8" d="M265.6,58.7h-4.8V36.6h-8.4v-4H274v4h-8.4V58.7z"/>
		</g>
	</g>
</g>
</svg>
