<?xml version="1.0" encoding="utf-8"?><!-- Generator: Adobe Illustrator 23.0.3, SVG Export Plug-In . SVG Version: 6.00 Build 0)  --><svg xmlns="http://www.w3.org/2000/svg" xmlns:xlink="http://www.w3.org/1999/xlink" version="1.1" id="Layer_1" x="0px" y="0px" width="263.9px" height="151.2px" viewBox="0 0 263.9 151.2" style="enable-background:new 0 0 263.9 151.2;" xml:space="preserve">
<style type="text/css">
	.st0{fill:none;}
	.st1{fill:#61E0DF;}
	.st2{fill:#3ED8D2;}
	.st3{opacity:0.2;}
	.st4{fill:url(#Active_Touchpad_Texture_1_);}
</style>
<pattern y="151.2" width="71" height="71" patternUnits="userSpaceOnUse" id="SVGID_1_" viewBox="0 -71 71 71" style="overflow:visible;">
	<g>
		<rect y="-71" class="st0" width="71" height="71"/>
		<g>
			<polygon class="st0" points="0,0 71,0 71,-71 0,-71    "/>
			<path d="M41.8-35.5c0-3.5-2.8-6.3-6.3-6.3s-6.3,2.8-6.3,6.3s2.8,6.3,6.3,6.3S41.8-32,41.8-35.5z"/>
		</g>
	</g>
</pattern>
<g>
	<path id="Active_Touchpad_Border" class="st1" d="M263.8,5.6c-0.4-3.2-3.3-5.6-6.5-5.6l0,0H132l0,0H6.7l0,0C3.5,0,0.6,2.3,0.2,5.6   C0.1,6.3,0.1,7,0.1,7.7v127.4c0,8.9,7.2,16.1,16.1,16.1H132l0,0h115.8c8.9,0,16.1-7.2,16.1-16.1V7.7C263.9,6.9,263.8,6.2,263.8,5.6   z" style="fill: rgb(82, 135, 132);"/>
	<g>
		<path id="Active_Touchpad_Inner" class="st2" d="M259.4,1.9c0-1-0.8-1.9-1.9-1.9H131.9l0,0H6.3c-1,0-1.9,0.8-1.9,1.9v6v123.2    c0,8.6,7,15.6,15.6,15.6h111.9l0,0h111.9c8.6,0,15.6-7,15.6-15.6V7.9V1.9z" style="fill: rgb(78, 128, 125);"/>
		<g class="st3">
			
				<pattern id="Active_Touchpad_Texture_1_" xlink:href="#SVGID_1_" patternTransform="matrix(0.1017 0 0 -0.1017 -15372.3535 -1725.5752)" class="st3">
			</pattern>
			<path id="Active_Touchpad_Texture" class="st4" d="M4.5,131.1c0,8.6,7,15.6,15.6,15.6H132l0,0h111.9c8.6,0,15.6-7,15.6-15.6V24.5     H4.6L4.5,131.1L4.5,131.1z"/>
		</g>
	</g>
</g>
</svg>