<?xml version="1.0" encoding="utf-8"?>
<!-- Generator: Adobe Illustrator 23.0.3, SVG Export Plug-In . SVG Version: 6.00 Build 0)  -->
<svg version="1.1" id="Layer_1" xmlns="http://www.w3.org/2000/svg" xmlns:xlink="http://www.w3.org/1999/xlink" x="0px" y="0px"
	 width="806px" height="598.9px" viewBox="0 0 806 598.9" style="enable-background:new 0 0 806 598.9;" xml:space="preserve">
<style type="text/css">
	.st0{fill:none;}
	.st1{fill:#B3B3B3;}
	.st2{fill:#C6383D;}
	.st3{display:none;fill:#E6E6E6;}
	.st4{fill:url(#Controller_Base_1_);}
	.st5{filter:url(#Controller_Gradient_Image);}
	.st6{fill:#5B0FC5;}
	.st7{fill:#6A25CC;}
	.st8{fill:#FFFFFF;}
	.st9{fill:#7028D4;}
	.st10{display:none;fill:#121212;}
	.st11{display:none;}
	.st12{display:inline;fill:#080808;}
	.st13{display:inline;opacity:0.12;}
	.st14{fill:url(#SVGID_1_);}
	.st15{fill:#8F18DE;}
	.st16{fill:#560FBA;}
	.st17{display:inline;}
	.st18{fill:#EDEDED;}
	.st19{fill:#F5F5F5;}
	.st20{display:inline;opacity:8.000000e-02;}
	.st21{fill:#F7F7F7;}
	.st22{fill:#FF6666;}
	.st23{fill:#7CB2E8;}
	.st24{fill:#FF69F8;}
	.st25{fill:#40E2A0;}
	.st26{fill:#560FBA;stroke:#FFFFFF;stroke-width:2;stroke-miterlimit:10;}
	.st27{opacity:0.1;fill:#E6E6E6;enable-background:new    ;}
	.st28{opacity:8.000000e-02;fill:url(#SVGID_5_);enable-background:new    ;}
	.st29{opacity:0.22;enable-background:new    ;}
	.st30{opacity:8.000000e-02;fill:url(#SVGID_6_);enable-background:new    ;}
	.st31{fill:#470C9A;}
	.st32{opacity:0.2;}
	.st33{fill:url(#Touchpad_Texture_2_);}
</style>
<pattern  y="598.9" width="71" height="71" patternUnits="userSpaceOnUse" id="SVGID_2_" viewBox="0 -71 71 71" style="overflow:visible;">
	<g>
		<rect y="-71" class="st0" width="71" height="71"/>
		<g>
			<rect y="-71" class="st0" width="71" height="71"/>
			<g>
				<polygon class="st0" points="0,0 71,0 71,-71 0,-71 				"/>
				<g>
					<polygon class="st0" points="0,0 71,0 71,-71 0,-71 					"/>
					<path class="st1" d="M41.8-35.5c0-3.5-2.8-6.3-6.3-6.3s-6.3,2.8-6.3,6.3s2.8,6.3,6.3,6.3S41.8-32,41.8-35.5z"/>
				</g>
			</g>
		</g>
	</g>
</pattern>
<pattern  y="598.9" width="40" height="103" patternUnits="userSpaceOnUse" id="SVGID_3_" viewBox="0 -231.7 40 103" style="overflow:visible;">
	<g>
		<rect y="-231.7" class="st0" width="40" height="103"/>
		<g>
			<rect y="-231.7" class="st0" width="40" height="103"/>
			<g>
				<polygon class="st0" points="0,-128.7 40,-128.7 40,-231.7 0,-231.7 				"/>
				<g>
					<polygon class="st0" points="0,-128.7 40,-128.7 40,-231.7 0,-231.7 					"/>
					<polygon points="34.5,-360.5 37.5,-360.5 37.5,-206 34.5,-206 					"/>
					<polygon points="26.5,-360.5 29.5,-360.5 29.5,-206 26.5,-206 					"/>
					<polygon points="18.5,-360.5 21.5,-360.5 21.5,-206 18.5,-206 					"/>
					<polygon points="10.5,-360.5 13.5,-360.5 13.5,-206 10.5,-206 					"/>
					<polygon points="2.5,-360.5 5.5,-360.5 5.5,-206 2.5,-206 					"/>
					<polygon points="34.5,-257.5 37.5,-257.5 37.5,-103 34.5,-103 					"/>
					<polygon points="26.5,-257.5 29.5,-257.5 29.5,-103 26.5,-103 					"/>
					<polygon points="18.5,-257.5 21.5,-257.5 21.5,-103 18.5,-103 					"/>
					<polygon points="10.5,-257.5 13.5,-257.5 13.5,-103 10.5,-103 					"/>
					<polygon points="2.5,-257.5 5.5,-257.5 5.5,-103 2.5,-103 					"/>
					<polygon points="34.5,-154.5 37.5,-154.5 37.5,0 34.5,0 					"/>
					<polygon points="26.5,-154.5 29.5,-154.5 29.5,0 26.5,0 					"/>
					<polygon points="18.5,-154.5 21.5,-154.5 21.5,0 18.5,0 					"/>
					<polygon points="10.5,-154.5 13.5,-154.5 13.5,0 10.5,0 					"/>
					<polygon points="2.5,-154.5 5.5,-154.5 5.5,0 2.5,0 					"/>
				</g>
			</g>
		</g>
	</g>
</pattern>
<pattern  y="598.9" width="40" height="103" patternUnits="userSpaceOnUse" id="SVGID_4_" viewBox="0 -231.7 40 103" style="overflow:visible;">
	<g>
		<rect y="-231.7" class="st0" width="40" height="103"/>
		<g>
			<rect y="-231.7" class="st0" width="40" height="103"/>
			<g>
				<polygon class="st0" points="0,-128.7 40,-128.7 40,-231.7 0,-231.7 				"/>
				<g>
					<polygon class="st0" points="0,-128.7 40,-128.7 40,-231.7 0,-231.7 					"/>
					<polygon points="34.5,-360.5 37.5,-360.5 37.5,-206 34.5,-206 					"/>
					<polygon points="26.5,-360.5 29.5,-360.5 29.5,-206 26.5,-206 					"/>
					<polygon points="18.5,-360.5 21.5,-360.5 21.5,-206 18.5,-206 					"/>
					<polygon points="10.5,-360.5 13.5,-360.5 13.5,-206 10.5,-206 					"/>
					<polygon points="2.5,-360.5 5.5,-360.5 5.5,-206 2.5,-206 					"/>
					<polygon points="34.5,-257.5 37.5,-257.5 37.5,-103 34.5,-103 					"/>
					<polygon points="26.5,-257.5 29.5,-257.5 29.5,-103 26.5,-103 					"/>
					<polygon points="18.5,-257.5 21.5,-257.5 21.5,-103 18.5,-103 					"/>
					<polygon points="10.5,-257.5 13.5,-257.5 13.5,-103 10.5,-103 					"/>
					<polygon points="2.5,-257.5 5.5,-257.5 5.5,-103 2.5,-103 					"/>
					<polygon points="34.5,-154.5 37.5,-154.5 37.5,0 34.5,0 					"/>
					<polygon points="26.5,-154.5 29.5,-154.5 29.5,0 26.5,0 					"/>
					<polygon points="18.5,-154.5 21.5,-154.5 21.5,0 18.5,0 					"/>
					<polygon points="10.5,-154.5 13.5,-154.5 13.5,0 10.5,0 					"/>
					<polygon points="2.5,-154.5 5.5,-154.5 5.5,0 2.5,0 					"/>
				</g>
			</g>
		</g>
	</g>
</pattern>
<pattern  y="598.9" width="71" height="71" patternUnits="userSpaceOnUse" id="Touchpad_Texture_1_" viewBox="0 -71 71 71" style="overflow:visible;">
	<g>
		<rect y="-71" class="st0" width="71" height="71"/>
		<g>
			<rect y="-71" class="st0" width="71" height="71"/>
			<g>
				<polygon class="st0" points="0,0 71,0 71,-71 0,-71 				"/>
				<g>
					<polygon class="st0" points="0,0 71,0 71,-71 0,-71 					"/>
					<path class="st2" d="M41.8-35.5c0-3.5-2.8-6.3-6.3-6.3s-6.3,2.8-6.3,6.3s2.8,6.3,6.3,6.3S41.8-32,41.8-35.5z"/>
				</g>
			</g>
		</g>
	</g>
</pattern>
<g id="Controller_Group">
	<g id="Controller_Base_Group">
		<g>
			<g>
				<path class="st3" d="M801.3,418.7c-2.9-15.5-17.7-102.5-32-144.6c-9.4-27.7-13.1-53-17-64.9c-12-35.7-33-65.7-33-65.7
					s-9.5-13.1-10.1-16.3c-0.6-3.3-4.7-8.6-4.7-8.6s-17.4-5.7-62.3-5.7c-44.9,0-53.7,5-53.7,5s-2.4,2.9-5.9,4.8
					c-3.5,1.8-11.7,1.7-11.7,1.7h-33.4c0,0-0.6-0.1-0.9,0.3c-0.4,0.4-0.6,2-0.6,2H403H269.9c0,0-0.3-1.7-0.6-2
					c-0.4-0.4-0.9-0.3-0.9-0.3H235c0,0-8.2,0.2-11.7-1.7c-3.5-1.8-5.9-4.8-5.9-4.8s-8.8-5-53.7-5c-44.8,0-62.3,5.7-62.3,5.7
					s-4.1,5.3-4.7,8.6c-0.6,3.3-10.1,16.3-10.1,16.3s-21,30-33,65.7c-4,11.9-7.7,37.2-17,64.9c-14.3,42.1-29.1,129.1-32,144.6
					c-4.3,23.2-4.7,90.1-4.7,90.1s4.5,53.4,36.2,74.9s56.7,14,56.7,14s33.1-8.2,57.8-41.9s56.6-129.2,56.6-129.2s2.2-3,5.7-5.3
					s6.3-2.6,6.3-2.6l183.7,0.1l183.7-0.1c0,0,2.8,0.3,6.3,2.6s5.7,5.3,5.7,5.3s31.9,95.4,56.6,129.2c24.7,33.8,57.8,41.9,57.8,41.9
					s25,7.5,56.7-14s36.2-74.9,36.2-74.9S805.7,441.8,801.3,418.7z"/>
				<g>
					<g>
						<linearGradient id="Controller_Base_1_" gradientUnits="userSpaceOnUse" x1="402.9" y1="598.9667" x2="402.9" y2="112.9">
							<stop  offset="0" style="stop-color:#5C3B5E"/>
							<stop  offset="0.1325" style="stop-color:#5E396C"/>
							<stop  offset="0.3812" style="stop-color:#633290"/>
							<stop  offset="0.7162" style="stop-color:#6B28C9"/>
							<stop  offset="1" style="stop-color:#721EFF"/>
						</linearGradient>
						<path id="Controller_Base" class="st4" d="M801.3,418.7c-2.9-15.5-17.7-102.5-32-144.6c-9.4-27.7-13.1-53-17-64.9
							c-12-35.7-33-65.7-33-65.7s-9.5-13.1-10.1-16.3c-0.6-3.3-4.7-8.6-4.7-8.6s-17.4-5.7-62.3-5.7c-44.9,0-53.7,5-53.7,5
							s-2.4,2.9-5.9,4.8c-3.5,1.8-11.7,1.7-11.7,1.7h-33.4c0,0-0.6-0.1-0.9,0.3c-0.4,0.4-0.6,2-0.6,2H403H269.9c0,0-0.3-1.7-0.6-2
							c-0.4-0.4-0.9-0.3-0.9-0.3H235c0,0-8.2,0.2-11.7-1.7c-3.5-1.8-5.9-4.8-5.9-4.8s-8.8-5-53.7-5c-44.8,0-62.3,5.7-62.3,5.7
							s-4.1,5.3-4.7,8.6c-0.6,3.3-10.1,16.3-10.1,16.3s-21,30-33,65.7c-4,11.9-7.7,37.2-17,64.9c-14.3,42.1-29.1,129.1-32,144.6
							c-4.3,23.2-4.7,90.1-4.7,90.1s4.5,53.4,36.2,74.9s56.7,14,56.7,14s33.1-8.2,57.8-41.9s56.6-129.2,56.6-129.2s2.2-3,5.7-5.3
							s6.3-2.6,6.3-2.6l183.7,0.1l183.7-0.1c0,0,2.8,0.3,6.3,2.6s5.7,5.3,5.7,5.3s31.9,95.4,56.6,129.2
							c24.7,33.8,57.8,41.9,57.8,41.9s25,7.5,56.7-14s36.2-74.9,36.2-74.9S805.7,441.8,801.3,418.7z"/>
						<path id="Controller_Gradient" class="st5" d="M801.3,418.7c-2.9-15.5-17.7-102.5-32-144.6c-9.4-27.7-13.1-53-17-64.9
							c-12-35.7-33-65.7-33-65.7s-9.5-13.1-10.1-16.3c-0.6-3.3-4.7-8.6-4.7-8.6s-17.4-5.7-62.3-5.7c-44.9,0-53.7,5-53.7,5
							s-2.4,2.9-5.9,4.8c-3.5,1.8-11.7,1.7-11.7,1.7h-33.4c0,0-0.6-0.1-0.9,0.3c-0.4,0.4-0.6,2-0.6,2H403H269.9c0,0-0.3-1.7-0.6-2
							c-0.4-0.4-0.9-0.3-0.9-0.3H235c0,0-8.2,0.2-11.7-1.7c-3.5-1.8-5.9-4.8-5.9-4.8s-8.8-5-53.7-5c-44.8,0-62.3,5.7-62.3,5.7
							s-4.1,5.3-4.7,8.6c-0.6,3.3-10.1,16.3-10.1,16.3s-21,30-33,65.7c-4,11.9-7.7,37.2-17,64.9c-14.3,42.1-29.1,129.1-32,144.6
							c-4.3,23.2-4.7,90.1-4.7,90.1s4.5,53.4,36.2,74.9s56.7,14,56.7,14s33.1-8.2,57.8-41.9s56.6-129.2,56.6-129.2s2.2-3,5.7-5.3
							s6.3-2.6,6.3-2.6l183.7,0.1l183.7-0.1c0,0,2.8,0.3,6.3,2.6s5.7,5.3,5.7,5.3s31.9,95.4,56.6,129.2
							c24.7,33.8,57.8,41.9,57.8,41.9s25,7.5,56.7-14s36.2-74.9,36.2-74.9S805.7,441.8,801.3,418.7z"/>
					</g>
				</g>
				<path id="Controller_Outline" class="st6" d="M36.6,276c9.4-27.7,13.1-53,17-64.9c12-35.7,33-65.7,33-65.7s9.5-13.1,10.1-16.3
					c0.6-3.3,4.7-8.6,4.7-8.6s17.4-5.7,62.3-5.7c44.8,0,53.7,5,53.7,5s2.4,2.9,5.9,4.8c3.5,1.8,11.7,1.7,11.7,1.7h33.4
					c0,0,0.6-0.1,0.9,0.3c0.4,0.4,0.6,2,0.6,2H403h133.1c0,0,0.3-1.7,0.6-2c0.4-0.4,0.9-0.3,0.9-0.3H571c0,0,8.2,0.2,11.7-1.7
					c3.5-1.8,5.9-4.8,5.9-4.8s8.8-5,53.7-5s62.3,5.7,62.3,5.7s4.1,5.3,4.7,8.6c0.6,3.3,10.1,16.3,10.1,16.3s21,30,33,65.7
					c4,11.9,7.7,37.2,17,64.9c14.3,42.1,29.1,129.1,32,144.6c3.9,20.9,4.6,77.3,4.7,88.3c0-0.1,0-0.1,0-0.1s-0.3-66.9-4.7-90.1
					c-2.9-15.5-17.7-102.5-32-144.6c-9.4-27.7-13.1-53-17-64.9c-12-35.7-33-65.7-33-65.7s-9.5-13.1-10.1-16.3
					c-0.6-3.3-4.7-8.6-4.7-8.6s-17.4-5.7-62.3-5.7c-44.9,0-53.7,5-53.7,5s-2.4,2.9-5.9,4.8c-3.5,1.8-11.7,1.7-11.7,1.7h-33.4
					c0,0-0.6-0.1-0.9,0.3c-0.4,0.4-0.6,2-0.6,2H403H269.9c0,0-0.3-1.7-0.6-2c-0.4-0.4-0.9-0.3-0.9-0.3H235c0,0-8.2,0.2-11.7-1.7
					c-3.5-1.8-5.9-4.8-5.9-4.8s-8.8-5-53.7-5c-44.8,0-62.3,5.7-62.3,5.7s-4.1,5.3-4.7,8.6c-0.6,3.3-10.1,16.3-10.1,16.3
					s-21,30-33,65.7c-4,11.9-7.7,37.2-17,64.9c-14.3,42.1-29.1,129.1-32,144.6c-4.3,23.2-4.7,90.1-4.7,90.1v0.1
					C0,498,0.6,441.5,4.6,420.6C7.6,405.2,22.3,318.1,36.6,276z"/>
				<g id="Right_Stick_Base_Group">
					<path id="Right_Stick_Base_Border" class="st7" d="M607.8,360c0-42.2-34.3-76.5-76.5-76.5s-76.5,34.3-76.5,76.5
						c0,0.7,0,1.3,0.1,2c0,0.7-0.1,1.3-0.1,2c0,42.2,34.3,76.5,76.5,76.5s76.5-34.3,76.5-76.5c0-0.7,0-1.3-0.1-2
						C607.8,361.3,607.8,360.6,607.8,360z"/>
					<circle id="Right_Stick_Base_Outer" class="st8" cx="531.3" cy="356" r="73"/>
					<circle id="Right_Stick_Base_Inner" class="st9" cx="531.3" cy="356" r="51.5"/>
				</g>
				<g id="Left_Stick_Base_Group">
					<path id="Left_Stick_Base_Border" class="st7" d="M351.2,360c0-42.2-34.3-76.5-76.5-76.5s-76.5,34.3-76.5,76.5
						c0,0.7,0,1.3,0.1,2c0,0.7-0.1,1.3-0.1,2c0,42.2,34.3,76.5,76.5,76.5s76.5-34.3,76.5-76.5c0-0.7,0-1.3-0.1-2
						C351.1,361.3,351.2,360.6,351.2,360z"/>
					<circle id="Left_Stick_Base_Outer" class="st8" cx="274.7" cy="356" r="73"/>
					<circle id="Left_Stick_Base_Inner" class="st9" cx="274.7" cy="356" r="51.5"/>
				</g>
				<path class="st10" d="M534.8,128c-0.4-3.2-3.3-5.6-6.5-5.6l0,0H403l0,0H277.7l0,0c-3.2,0-6.1,2.3-6.5,5.6
					c-0.1,0.7-0.1,1.4-0.1,2.1v127.4c0,8.9,7.2,16.1,16.1,16.1H403l0,0h115.8c8.9,0,16.1-7.2,16.1-16.1V130.1
					C535,129.4,534.9,128.7,534.8,128z"/>
				<g class="st11">
					<path class="st12" d="M530.4,124.3c0-1-0.8-1.9-1.9-1.9H403l0,0H277.4c-1,0-1.9,0.8-1.9,1.9v6v123.2c0,8.6,7,15.6,15.6,15.6
						H403l0,0h111.9c8.6,0,15.6-7,15.6-15.6V130.4L530.4,124.3z"/>
					<g class="st13">
						
							<pattern  id="SVGID_1_" xlink:href="#SVGID_2_" patternTransform="matrix(0.1017 0 0 -0.1017 -28973.8496 -3150.0999)"  style="opacity:0.12;">
						</pattern>
						<path class="st14" d="M275.5,253.5c0,8.6,7,15.6,15.6,15.6H403l0,0h111.9c8.6,0,15.6-7,15.6-15.6V147H275.6v106.5H275.5z"/>
					</g>
				</g>
				<circle id="Button_Base_Inner" class="st8" cx="652.3" cy="244.8" r="94.3"/>
				<g id="Dpad_Base_Group">
					<circle id="Dpad_Base_Inner" class="st8" cx="153.7" cy="244.8" r="94.3"/>
					<path id="Dpad_Base_Right" class="st15" d="M230.4,254.1l9.5-8.9c0.5-0.5,0.5-1.2,0-1.7l-9.5-8.9c-0.7-0.7-1.9-0.2-1.9,0.8v8.9
						v8.9C228.4,254.2,229.6,254.7,230.4,254.1z"/>
					<path id="Dpad_Base_Up" class="st15" d="M145,169.8h8.9h8.9c1,0,1.5-1.2,0.8-1.9l-8.9-9.5c-0.5-0.5-1.2-0.5-1.7,0l-8.9,9.5
						C143.5,168.6,144,169.8,145,169.8z"/>
					<path id="Dpad_Base_Left" class="st15" d="M77.5,234.6l-9.5,8.9c-0.5,0.5-0.5,1.2,0,1.7l9.5,8.9c0.7,0.7,1.9,0.2,1.9-0.8v-8.9
						v-8.9C79.4,234.5,78.2,233.9,77.5,234.6z"/>
					<path id="Dpad_Base_Down" class="st15" d="M162.8,318.8h-8.9H145c-1,0-1.5,1.2-0.8,1.9l8.9,9.5c0.5,0.5,1.2,0.5,1.7,0l8.9-9.5
						C164.3,320,163.8,318.8,162.8,318.8z"/>
				</g>
			</g>
		</g>
	</g>
	<g id="Share_Options_Text_Group">
		<g id="Options_Text_Group">
			<path class="st8" d="M547.6,134.6c0,2.1-1.5,3.8-4.1,3.8s-4.1-1.7-4.1-3.8c0-2,1.5-3.8,4.1-3.8S547.6,132.5,547.6,134.6z
				 M540.9,134.6c0,1.4,0.8,2.7,2.6,2.7s2.6-1.4,2.6-2.7c0-1.4-0.8-2.7-2.6-2.7S540.9,133.2,540.9,134.6z"/>
			<path class="st8" d="M548.9,131h3.8c2.4,0,2.9,1.3,2.9,2.2s-0.5,2.2-2.9,2.2h-2.3v2.8h-1.5V131z M550.4,134.4h2.2
				c0.7,0,1.5-0.3,1.5-1.2s-0.7-1.2-1.5-1.2h-2.2V134.4z"/>
			<path class="st8" d="M556.1,131h6.9v1.1h-2.7v6.1h-1.5v-6.1h-2.7V131z"/>
			<path class="st8" d="M564.1,131h1.5v7.2h-1.5V131z"/>
			<path class="st8" d="M575.1,134.6c0,2.1-1.5,3.8-4.1,3.8s-4.1-1.7-4.1-3.8c0-2,1.5-3.8,4.1-3.8S575.1,132.5,575.1,134.6z
				 M568.4,134.6c0,1.4,0.8,2.7,2.6,2.7s2.6-1.4,2.6-2.7c0-1.4-0.8-2.7-2.6-2.7S568.4,133.2,568.4,134.6z"/>
			<path class="st8" d="M576.5,131h1.5l3.9,5.3l0,0V131h1.4v7.2h-1.6l-3.9-5.3l0,0v5.3h-1.4L576.5,131L576.5,131z"/>
			<path class="st8" d="M586.2,135.8c0,1.1,1,1.5,2.2,1.5c1.3,0,1.8-0.6,1.8-1.1c0-0.6-0.4-0.8-0.7-0.9c-0.6-0.2-1.4-0.3-2.6-0.6
				c-1.5-0.3-1.9-1.1-1.9-1.8c0-1.5,1.6-2.1,3.1-2.1c1.8,0,3.3,0.8,3.3,2.3h-1.5c-0.1-0.9-0.8-1.3-1.8-1.3c-0.7,0-1.6,0.2-1.6,0.9
				c0,0.5,0.4,0.8,1,0.9c0.1,0,2,0.4,2.5,0.6c1.1,0.3,1.7,1.1,1.7,1.8c0,1.6-1.7,2.3-3.4,2.3c-2,0-3.5-0.8-3.6-2.6h1.5
				C586.2,135.7,586.2,135.8,586.2,135.8z"/>
		</g>
		<g id="Share_Text_Group">
			<path class="st8" d="M222.2,135.8c0,1.1,1,1.5,2.2,1.5c1.3,0,1.8-0.6,1.8-1.1c0-0.6-0.4-0.8-0.7-0.9c-0.6-0.2-1.4-0.3-2.6-0.6
				c-1.5-0.3-1.9-1.1-1.9-1.8c0-1.5,1.6-2.1,3.1-2.1c1.8,0,3.3,0.8,3.3,2.3h-1.5c-0.1-0.9-0.8-1.3-1.8-1.3c-0.7,0-1.6,0.2-1.6,0.9
				c0,0.5,0.4,0.8,1,0.9c0.1,0,2,0.4,2.5,0.6c1.1,0.3,1.7,1.1,1.7,1.8c0,1.6-1.7,2.3-3.4,2.3c-2,0-3.5-0.8-3.6-2.6h1.5V135.8z"/>
			<path class="st8" d="M228.9,131h1.5v2.9h3.9V131h1.5v7.2h-1.5v-3.3h-3.9v3.2h-1.5V131z"/>
			<path class="st8" d="M239.9,131h1.6l3.3,7.2h-1.6l-0.8-1.9H239l-0.8,1.9h-1.5L239.9,131z M239.4,135.3h2.6l-1.3-3.1l0,0
				L239.4,135.3z"/>
			<path class="st8" d="M245.6,131h4.1c1.9,0,2.8,0.7,2.8,1.9c0,1.4-1.1,1.7-1.4,1.8l0,0c0.5,0.1,1.3,0.4,1.3,1.5
				c0,0.8,0.1,1.6,0.5,1.9h-1.6c-0.2-0.3-0.2-0.7-0.2-1.1c0-1.3-0.3-1.9-1.7-1.9h-2.2v3h-1.5L245.6,131L245.6,131z M247.1,134.2h2.5
				c1,0,1.5-0.4,1.5-1.1c0-0.9-0.7-1.1-1.5-1.1h-2.4v2.2L247.1,134.2L247.1,134.2z"/>
			<path class="st8" d="M254.1,131h6.2v1.1h-4.7v1.9h4.3v1h-4.3v2.1h4.7v1.1h-6.2L254.1,131L254.1,131z"/>
		</g>
	</g>
	<g id="Bumper_Group">
		<g id="Right_Bumper_Group">
			<g>
				<path id="Right_Bumper_Top" class="st15" d="M697.2,109.9c0-0.8-0.4-1.5-1.1-1.9c-4.5-2.9-23.4-13.6-51.5-13.6
					c-26.9,0-41.1,5.9-45.1,8c-0.8,0.4-1.2,1.2-1.2,2c0,0,9.8-2.9,47.5-2.9S697.2,109.9,697.2,109.9z"/>
				<path id="Right_Bumper_Bottom" class="st16" d="M697.1,116.8L697.1,116.8v-6.9c0,0-13.7-8.4-51.4-8.4c-37.8,0-47.5,2.9-47.5,2.9
					v11l0,0c7.7-1.3,21.2-2.6,44.1-2.6C670.8,112.9,688.2,115.2,697.1,116.8z"/>
			</g>
		</g>
		<g id="Left_Bumper_Group">
			<g>
				<path id="Left_Bumper_Top" class="st15" d="M108.8,109.9c0-0.8,0.4-1.5,1.1-1.9c4.5-2.9,23.4-13.6,51.5-13.6
					c26.9,0,41.1,5.9,45.1,8c0.8,0.4,1.2,1.2,1.2,2c0,0-9.8-2.9-47.5-2.9S108.8,109.9,108.8,109.9z"/>
				<path id="Left_Bumper_Bottom" class="st16" d="M108.9,116.8L108.9,116.8v-6.9c0,0,13.7-8.4,51.4-8.4c37.8,0,47.5,2.9,47.5,2.9
					v11l0,0c-7.7-1.3-21.2-2.6-44.1-2.6C135.2,112.9,117.8,115.2,108.9,116.8z"/>
			</g>
		</g>
	</g>
	<g id="Triggers_Group">
		<g id="Right_Trigger_Group">
			<g>
				<g>
					<path id="Right_Trigger_Top" class="st16" d="M697.1,90.8c0,0-32.7-3.2-50.6-3.2S598.2,90,598.2,90s3.1-44.7,4.8-52
						c1.6-7.3,7.7-21.3,16.9-27.9S631.9,0,642.7,0s25.4,6.4,34.6,21.4C686.4,36.4,697.1,90.8,697.1,90.8z"/>
					<path id="Right_Trigger_Bottom" class="st15" d="M598.7,83.2c0,0,26.1-4.4,49-4.4c22.8,0,47.9,4.4,47.9,4.4
						c1,4.7,1.6,7.6,1.6,7.6s-32.7-3.2-50.6-3.2c-17.9,0-48.3,2.4-48.3,2.4S598.3,87.3,598.7,83.2z"/>
				</g>
				<g id="Right_Trigger_Text_Group">
					<g>
						<path id="Right_Trigger_2" class="st8" d="M648.7,65.7c-2.1,1.7-3.2,2.6-3.2,2.6c-1.2,1.2-1.9,2.7-2,4.5h9.8v-2.6H647
							c0.3-0.5,1-1.2,2.1-1.9c1.4-0.9,2.3-1.6,2.7-2.1c0.9-1,1.3-2.1,1.3-3.3c0-1.4-0.5-2.5-1.4-3.3s-2.1-1.2-3.5-1.2
							c-3.1,0-4.7,1.7-4.7,5h2.7c0-1.8,0.7-2.7,2.1-2.7c1.3,0,2,0.7,2,2.1C650.4,63.8,649.8,64.8,648.7,65.7z"/>
					</g>
					<path id="Right_Trigger_R" class="st8" d="M631.1,67.2h3c1.5,0,2.3,0.6,2.4,1.9c0.1,1.2,0.2,2.5,0.3,3.8h3.3v-0.4
						c-0.5-0.2-0.7-0.7-0.7-1.5c0-0.2,0-0.4,0.1-0.8v-0.7c0-1.7-0.6-2.9-1.8-3.5c1.4-0.5,2.2-1.6,2.2-3.4c0-1.3-0.4-2.3-1.3-3
						c-0.8-0.7-1.9-1-3.2-1h-7.3v14.3h3V67.2z M631.1,60.9h3.7c1.4,0,2.1,0.6,2.1,1.9s-0.8,1.9-2.3,1.9h-3.5
						C631.1,64.7,631.1,60.9,631.1,60.9z"/>
				</g>
			</g>
			<g class="st11">
				<g class="st17">
					<path class="st18" d="M697.1,90.8c0,0-32.7-3.2-50.6-3.2S598.2,90,598.2,90s3.1-44.7,4.8-52c1.6-7.3,7.7-21.3,16.9-27.9
						S631.9,0,642.7,0s25.4,6.4,34.6,21.4C686.4,36.4,697.1,90.8,697.1,90.8z"/>
					<path class="st19" d="M598.7,83.2c0,0,26.1-4.4,49-4.4c22.8,0,47.9,4.4,47.9,4.4c1,4.7,1.6,7.6,1.6,7.6s-32.7-3.2-50.6-3.2
						c-17.9,0-48.3,2.4-48.3,2.4S598.3,87.3,598.7,83.2z"/>
				</g>
				<g class="st20">
					<g>
						<path d="M648.7,65.7c-2.1,1.7-3.2,2.6-3.2,2.6c-1.2,1.2-1.9,2.7-2,4.5h9.8v-2.6H647c0.3-0.5,1-1.2,2.1-1.9
							c1.4-0.9,2.3-1.6,2.7-2.1c0.9-1,1.3-2.1,1.3-3.3c0-1.4-0.5-2.5-1.4-3.3s-2.1-1.2-3.5-1.2c-3.1,0-4.7,1.7-4.7,5h2.7
							c0-1.8,0.7-2.7,2.1-2.7c1.3,0,2,0.7,2,2.1C650.4,63.8,649.8,64.8,648.7,65.7z"/>
					</g>
					<path d="M631.1,67.2h3c1.5,0,2.3,0.6,2.4,1.9c0.1,1.2,0.2,2.5,0.3,3.8h3.3v-0.4c-0.5-0.2-0.7-0.7-0.7-1.5c0-0.2,0-0.4,0.1-0.8
						v-0.7c0-1.7-0.6-2.9-1.8-3.5c1.4-0.5,2.2-1.6,2.2-3.4c0-1.3-0.4-2.3-1.3-3c-0.8-0.7-1.9-1-3.2-1h-7.3v14.3h3V67.2z M631.1,60.9
						h3.7c1.4,0,2.1,0.6,2.1,1.9s-0.8,1.9-2.3,1.9h-3.5C631.1,64.7,631.1,60.9,631.1,60.9z"/>
				</g>
			</g>
		</g>
		<g id="Left_Trigger_Group">
			<g>
				<g>
					<path id="Left_Trigger_Top" class="st16" d="M108.8,90.8c0,0,32.7-3.2,50.6-3.2s48.3,2.4,48.3,2.4s-3.1-44.7-4.8-52
						c-1.6-7.3-7.7-21.3-16.9-27.9C176.8,3.4,174,0,163.2,0s-25.4,6.4-34.6,21.4C119.5,36.4,108.8,90.8,108.8,90.8z"/>
					<path id="Left_Trigger_Bottom" class="st15" d="M207.2,83.2c0,0-26.1-4.4-49-4.4c-22.8,0-47.9,4.4-47.9,4.4
						c-1,4.7-1.6,7.6-1.6,7.6s32.7-3.2,50.6-3.2s48.3,2.4,48.3,2.4S207.6,87.3,207.2,83.2z"/>
				</g>
				<g id="Left_Trigger_Text_Group">
					<g>
						<path id="Left_Trigger_2" class="st21" d="M173.3,65.7c-2.1,1.7-3.2,2.6-3.2,2.6c-1.2,1.2-1.9,2.7-2,4.5h9.8v-2.6h-6.2
							c0.3-0.5,1-1.2,2.1-1.9c1.4-0.9,2.3-1.6,2.7-2.1c0.9-1,1.3-2.1,1.3-3.3c0-1.4-0.5-2.5-1.4-3.3s-2.1-1.2-3.5-1.2
							c-3.1,0-4.7,1.7-4.7,5h2.7c0-1.8,0.7-2.7,2.1-2.7c1.3,0,2,0.7,2,2.1C175,63.8,174.5,64.8,173.3,65.7z"/>
					</g>
					<polygon id="Left_Trigger_L" class="st21" points="164.8,70.1 157.7,70.1 157.7,58.5 154.7,58.5 154.7,72.8 164.8,72.8 					
						"/>
				</g>
			</g>
			<g class="st11">
				<g class="st17">
					<path class="st18" d="M108.8,90.8c0,0,32.7-3.2,50.6-3.2s48.3,2.4,48.3,2.4s-3.1-44.7-4.8-52c-1.6-7.3-7.7-21.3-16.9-27.9
						C176.8,3.4,174,0,163.2,0s-25.4,6.4-34.6,21.4C119.5,36.4,108.8,90.8,108.8,90.8z"/>
					<path class="st19" d="M207.2,83.2c0,0-26.1-4.4-49-4.4c-22.8,0-47.9,4.4-47.9,4.4c-1,4.7-1.6,7.6-1.6,7.6s32.7-3.2,50.6-3.2
						s48.3,2.4,48.3,2.4S207.6,87.3,207.2,83.2z"/>
				</g>
				<g class="st20">
					<g>
						<path d="M173.3,65.7c-2.1,1.7-3.2,2.6-3.2,2.6c-1.2,1.2-1.9,2.7-2,4.5h9.8v-2.6h-6.2c0.3-0.5,1-1.2,2.1-1.9
							c1.4-0.9,2.3-1.6,2.7-2.1c0.9-1,1.3-2.1,1.3-3.3c0-1.4-0.5-2.5-1.4-3.3s-2.1-1.2-3.5-1.2c-3.1,0-4.7,1.7-4.7,5h2.7
							c0-1.8,0.7-2.7,2.1-2.7c1.3,0,2,0.7,2,2.1C175,63.8,174.5,64.8,173.3,65.7z"/>
					</g>
					<polygon points="164.8,70.1 157.7,70.1 157.7,58.5 154.7,58.5 154.7,72.8 164.8,72.8 					"/>
				</g>
			</g>
		</g>
	</g>
	<g id="Buttons_Group">
		<g>
			<g id="Circle_Group">
				<g>
					<path id="Circle_Inner" class="st15" d="M709.9,271c-14.5,0-26.3-11.8-26.3-26.3s11.8-26.3,26.3-26.3s26.3,11.8,26.3,26.3
						C736.2,259.2,724.4,271,709.9,271z"/>
					<path id="Circle_Outer" class="st16" d="M709.9,219.5c13.9,0,25.3,11.3,25.3,25.3c0,14-11.3,25.3-25.3,25.3
						s-25.3-11.3-25.3-25.3S696,219.5,709.9,219.5 M709.9,217.5c-15,0-27.3,12.2-27.3,27.3c0,15.1,12.2,27.3,27.3,27.3
						s27.3-12.2,27.3-27.3S724.9,217.5,709.9,217.5L709.9,217.5z"/>
				</g>
				<path id="Circle_Glyph" class="st22" d="M709.9,225.9c-10.4,0-18.9,8.5-18.9,18.9s8.5,18.9,18.9,18.9s18.9-8.5,18.9-18.9
					S720.4,225.9,709.9,225.9z M709.9,260.8c-8.9,0-16-7.2-16-16c0-8.9,7.2-16,16-16s16,7.2,16,16
					C726,253.7,718.8,260.8,709.9,260.8z"/>
			</g>
			<g id="X_Group">
				<g>
					<path id="X_Inner" class="st15" d="M652.3,328.6c-14.5,0-26.3-11.8-26.3-26.3s11.8-26.3,26.3-26.3s26.3,11.8,26.3,26.3
						S666.8,328.6,652.3,328.6z"/>
					<path id="X_Outer" class="st16" d="M652.3,277.1c13.9,0,25.3,11.3,25.3,25.3s-11.3,25.3-25.3,25.3S627,316.4,627,302.4
						S638.4,277.1,652.3,277.1 M652.3,275.1c-15,0-27.3,12.2-27.3,27.3c0,15,12.2,27.3,27.3,27.3s27.3-12.2,27.3-27.3
						C679.6,287.4,667.4,275.1,652.3,275.1L652.3,275.1z"/>
				</g>
				<polygon id="X_Glyph" class="st23" points="666.7,290 664.7,288 652.3,300.4 640,288 638,290 650.3,302.4 638,314.7 640,316.8 
					652.3,304.4 664.7,316.8 666.7,314.7 654.3,302.4 				"/>
			</g>
			<g id="Square_Group">
				<g>
					<path id="Square_Inner" class="st15" d="M594.8,271c-14.5,0-26.3-11.8-26.3-26.3s11.8-26.3,26.3-26.3s26.2,11.9,26.2,26.4
						S609.2,271,594.8,271z"/>
					<path id="Square_Outer" class="st16" d="M594.7,219.5c13.9,0,25.3,11.3,25.3,25.3c0,14-11.3,25.3-25.3,25.3
						s-25.3-11.3-25.3-25.3S580.8,219.5,594.7,219.5 M594.7,217.5c-15,0-27.3,12.2-27.3,27.3c0,15.1,12.2,27.3,27.3,27.3
						s27.3-12.3,27.3-27.3S609.8,217.5,594.7,217.5L594.7,217.5z"/>
				</g>
				<path id="Square_Glyph" class="st24" d="M606.3,230.4h-23h-2.8v2.8v23v2.8h2.8h23h2.8v-2.8v-23v-2.8L606.3,230.4L606.3,230.4z
					 M606.3,256.3h-23v-23h23V256.3z"/>
			</g>
			<g id="Triangle_Group">
				<g>
					<path id="Triangle_Inner" class="st15" d="M652.3,213.5c-14.5,0-26.3-11.8-26.3-26.3s11.8-26.3,26.3-26.3s26.3,11.8,26.3,26.3
						S666.8,213.5,652.3,213.5z"/>
					<path id="Triangle_Outer" class="st16" d="M652.3,162c13.9,0,25.3,11.3,25.3,25.3s-11.3,25.3-25.3,25.3S627,201.3,627,187.3
						S638.4,162,652.3,162 M652.3,160c-15,0-27.3,12.2-27.3,27.3s12.2,27.3,27.3,27.3s27.3-12.2,27.3-27.3S667.4,160,652.3,160
						L652.3,160z"/>
				</g>
				<path id="Triangle_Glyph" class="st25" d="M668.3,195.2l-16-27.6l-16,27.6l-1.6,2.8h3.3h14.3h14.3h3.3L668.3,195.2z
					 M652.3,195.2h-12.7l12.7-21.9l12.7,21.9H652.3z"/>
			</g>
		</g>
	</g>
	<g id="Speaker_Group">
		<g>
			<circle class="st15" cx="403" cy="316.4" r="4.1"/>
			<circle class="st15" cx="403" cy="295.5" r="4.1"/>
			<circle class="st15" cx="396.1" cy="305.7" r="4.1"/>
			<circle class="st15" cx="381.4" cy="305.7" r="4.1"/>
			<circle class="st15" cx="388.7" cy="316.4" r="4.1"/>
			<circle class="st15" cx="388.7" cy="295.5" r="4.1"/>
			<circle class="st15" cx="374.4" cy="295.5" r="4.1"/>
		</g>
		<g>
			<circle class="st15" cx="409.9" cy="305.7" r="4.1"/>
			<ellipse class="st15" cx="424.6" cy="305.7" rx="4.1" ry="4.1"/>
			<circle class="st15" cx="417.2" cy="316.4" r="4.1"/>
			<circle class="st15" cx="417.2" cy="295.5" r="4.1"/>
			<circle class="st15" cx="431.6" cy="295.5" r="4.1"/>
		</g>
	</g>
	<g id="PS4_Home_Group">
		<circle id="PS4_Home_Inner" class="st26" cx="403" cy="362" r="20.2"/>
		<g id="PS4_Icon_Group">
			<path class="st8" d="M404.1,368.6v-2.8v-3.5v-6.5c0-0.5,0.1-0.8,0.3-1c0.1-0.2,0.4-0.3,0.7-0.2c0.6,0.2,0.9,0.7,0.9,1.7v6.9
				c0.8,0.4,1.5,0.5,2.1,0.5s1.2-0.2,1.6-0.5c1-0.7,1.5-1.9,1.5-3.7c0-1.9-0.4-3.4-1.2-4.3c-0.8-1-2.1-1.9-4.1-2.6
				c-1.3-0.4-2.5-0.8-3.6-1.1c-1.1-0.3-2-0.5-2.9-0.7V363l0,0v2.7l0,0v1.7l0,0v2.5l0,0v1.5l4.7,1.5v-3.6l0,0V368.6z"/>
			<path class="st8" d="M399,367.6l-1.7,0.6l-0.9,0.4l-1.6,0.3l-1.5-0.2c-0.3-0.2-0.4-0.4-0.2-0.6c0.1-0.1,0.2-0.1,0.3-0.2
				c0.1-0.1,0.3-0.1,0.4-0.2l1.1-0.4l4.1-1.5v-2.7l-1.7,0.5l-5.5,2l-1,0.4c-1.5,0.6-2.2,1.2-2.2,1.8c0.1,0.8,1,1.5,2.7,1.9
				c0.7,0.2,1.4,0.3,2.1,0.4s1.4,0.1,2.2,0.1c1,0,2.1-0.1,3.3-0.3L399,367.6L399,367.6z"/>
			<path class="st8" d="M414.8,365.3c-0.9-0.3-1.7-0.5-2.5-0.6s-1.7-0.2-2.5-0.1c-0.9,0-1.9,0.2-2.8,0.3c-0.8,0.2-1.7,0.4-2.6,0.8
				v2.8l3.9-1.4l1.6-0.5l1.1-0.3h1.4c0.3,0.1,0.6,0.2,0.7,0.4c0,0.2-0.2,0.4-0.8,0.6l-1.4,0.5l-6.5,2.4v2.7l3.5-1.3l6.4-2.3l0.7-0.4
				c1.5-0.5,2.2-1.2,2.2-1.9C417.2,366.4,416.4,365.8,414.8,365.3z"/>
		</g>
	</g>
	<path id="Left_Handle_Inner" class="st16" d="M105.2,544.5c-40.5-2.8-75.8-20.3-87.3-30.5S0.4,482.5,0.4,482.5
		C0,497.5,0,508.8,0,508.8s4.5,53.4,36.2,74.9s56.7,14,56.7,14s33.1-8.2,57.8-41.9c4.5-6.2,9.3-14.5,14.1-23.8
		C164.7,531.9,145.6,547.2,105.2,544.5z"/>
	<path id="Right_Handle_Inner" class="st16" d="M700.8,544.5c40.5-2.8,75.8-20.3,87.3-30.5s17.5-31.5,17.5-31.5
		c0.4,15,0.4,26.3,0.4,26.3s-4.5,53.4-36.2,74.9s-56.7,14-56.7,14s-33.1-8.2-57.8-41.9c-4.5-6.2-9.3-14.5-14.1-23.8
		C641.3,531.9,660.4,547.2,700.8,544.5z"/>
	<g id="Left_Handle_Texture">
		<path class="st27" d="M105.2,544.5c-40.5-2.8-75.8-20.3-87.3-30.5S0.4,482.5,0.4,482.5C0,497.5,0,508.8,0,508.8
			s4.5,53.4,36.2,74.9s56.7,14,56.7,14s33.1-8.2,57.8-41.9c4.5-6.2,9.3-14.5,14.1-23.8C164.7,531.9,145.6,547.2,105.2,544.5z"/>
		
			<pattern  id="SVGID_5_" xlink:href="#SVGID_3_" patternTransform="matrix(0.3298 9.457588e-02 9.457588e-02 -0.3298 -21649.9336 -12482.7207)">
		</pattern>
		<path class="st28" d="M105.2,544.5c-40.5-2.8-75.8-20.3-87.3-30.5S0.4,482.5,0.4,482.5C0,497.5,0,508.8,0,508.8
			s4.5,53.4,36.2,74.9s56.7,14,56.7,14s33.1-8.2,57.8-41.9c4.5-6.2,9.3-14.5,14.1-23.8C164.7,531.9,145.6,547.2,105.2,544.5z"/>
		<path class="st29" d="M90,592.5c-12.5,1.8-31.3-2-45.1-7.7c-13.6-5.7-24-16.4-24-16.4c4.2,5.8,9.3,11.1,15.3,15.2
			c31.7,21.5,56.7,14,56.7,14s11.7-2.9,26.3-12.3C119.2,585.3,104.6,590.5,90,592.5z"/>
	</g>
	<g id="Right_Handle_Texture">
		<path class="st27" d="M700.8,544.5c40.5-2.8,75.8-20.3,87.3-30.5s17.5-31.5,17.5-31.5c0.4,15,0.4,26.3,0.4,26.3
			s-4.5,53.4-36.2,74.9s-56.7,14-56.7,14s-33.1-8.2-57.8-41.9c-4.5-6.2-9.3-14.5-14.1-23.8C641.3,531.9,660.4,547.2,700.8,544.5z"/>
		
			<pattern  id="SVGID_6_" xlink:href="#SVGID_4_" patternTransform="matrix(-0.3298 9.457588e-02 -9.457588e-02 -0.3298 -42841.4102 -12518.6152)">
		</pattern>
		<path class="st30" d="M700.8,544.5c40.5-2.8,75.8-20.3,87.3-30.5s17.5-31.5,17.5-31.5c0.4,15,0.4,26.3,0.4,26.3
			s-4.5,53.4-36.2,74.9s-56.7,14-56.7,14s-33.1-8.2-57.8-41.9c-4.5-6.2-9.3-14.5-14.1-23.8C641.3,531.9,660.4,547.2,700.8,544.5z"/>
		<path class="st29" d="M716,592.5c12.5,1.8,31.3-2,45.1-7.7c13.6-5.7,24-16.4,24-16.4c-4.2,5.8-9.3,11.1-15.3,15.2
			c-31.7,21.5-56.7,14-56.7,14s-11.7-2.9-26.3-12.3C686.8,585.3,701.4,590.5,716,592.5z"/>
	</g>
	<g id="Share_Options_Group">
		<g id="Share_Group">
			<g>
				<path id="Share_Border" class="st8" d="M240.5,143.5c6.9,0,12.5,5.6,12.5,12.5v18.3c0,6.9-5.6,12.5-12.5,12.5
					s-12.5-5.6-12.5-12.5V156C228,149.1,233.6,143.5,240.5,143.5 M240.5,141.8c-7.8,0-14.2,6.4-14.2,14.2v18.3
					c0,7.8,6.4,14.2,14.2,14.2s14.2-6.4,14.2-14.2V156C254.7,148.1,248.3,141.8,240.5,141.8L240.5,141.8z"/>
				<path id="Share_Inner" class="st15" d="M240.5,143.5c-6.9,0-12.5,5.6-12.5,12.5v18.3c0,6.9,5.6,12.5,12.5,12.5
					s12.5-5.6,12.5-12.5V156C253,149.1,247.4,143.5,240.5,143.5z"/>
			</g>
		</g>
		<g id="Options_Group">
			<g>
				<path id="Options_Border" class="st8" d="M565.5,143.5c6.9,0,12.5,5.6,12.5,12.5v18.3c0,6.9-5.6,12.5-12.5,12.5l0,0
					c-6.9,0-12.5-5.6-12.5-12.5V156C553,149.1,558.6,143.5,565.5,143.5L565.5,143.5 M565.5,141.8c-7.8,0-14.2,6.4-14.2,14.2v18.3
					c0,7.8,6.4,14.2,14.2,14.2s14.2-6.4,14.2-14.2V156C579.7,148.1,573.3,141.8,565.5,141.8L565.5,141.8z"/>
				<path id="Options_Inner" class="st15" d="M565.5,143.5c-6.9,0-12.5,5.6-12.5,12.5v18.3c0,6.9,5.6,12.5,12.5,12.5
					s12.5-5.6,12.5-12.5V156C578,149.1,572.4,143.5,565.5,143.5z"/>
			</g>
		</g>
	</g>
	<g id="Dpad_Group">
		<g>
			<path id="Dpad_Left_Outer" class="st15" d="M141.2,247.2c1.4-2,1.2-2.9,1.2-2.9s0.2-0.9-1.2-2.9s-15-13.6-15.7-14
				s-28.5-2.2-31.4,1.3s-2.6,15.6-2.6,15.6s-0.3,12.1,2.6,15.6s30.7,1.7,31.4,1.3S139.8,249.2,141.2,247.2z"/>
			<path id="Dpad_Left_Inner" class="st31" d="M141.2,247.2c1.4-2,1.2-2.9,1.2-2.9s0.2-0.9-1.2-2.9c-0.9-1.3-6.9-6.6-11.2-10.3
				c-2.1,3.9-3.4,8.4-3.4,13.2s1.2,9.3,3.4,13.2C134.3,253.8,140.3,248.5,141.2,247.2z"/>
		</g>
		<g>
			<path id="Dpad_Up_Outer" class="st15" d="M151,231.6c2,1.4,2.9,1.2,2.9,1.2s0.9,0.2,2.9-1.2s13.6-15,14-15.7s2.2-28.5-1.3-31.4
				s-15.6-2.6-15.6-2.6s-12.1-0.3-15.6,2.6s-1.7,30.7-1.3,31.4C137.5,216.6,149,230.2,151,231.6z"/>
			<path id="Dpad_Up_Inner" class="st31" d="M151,231.6c2,1.4,2.9,1.2,2.9,1.2s0.9,0.2,2.9-1.2c1.3-0.9,6.6-6.9,10.3-11.2
				c-3.9-2.1-8.4-3.4-13.2-3.4s-9.3,1.2-13.2,3.4C144.5,224.7,149.7,230.7,151,231.6z"/>
		</g>
		<g>
			<path id="Dpad_Right_Outer" class="st15" d="M213.7,228.8c-2.9-3.5-30.7-1.7-31.4-1.3s-14.3,12-15.7,14s-1.2,2.9-1.2,2.9
				s-0.2,0.9,1.2,2.9s15,13.6,15.7,14s28.5,2.2,31.4-1.3s2.6-15.6,2.6-15.6S216.6,232.3,213.7,228.8z"/>
			<path id="Dpad_Right_Inner" class="st31" d="M177.9,231.2c-4.3,3.7-10.3,9-11.2,10.3c-1.4,2-1.2,2.9-1.2,2.9s-0.2,0.9,1.2,2.9
				c0.9,1.3,6.9,6.6,11.2,10.3c2.1-3.9,3.4-8.4,3.4-13.2S180,235.1,177.9,231.2z"/>
		</g>
		<g>
			<path id="Dpad_Down_Outer" class="st15" d="M156.8,257.1c-2-1.4-2.9-1.2-2.9-1.2s-0.9-0.2-2.9,1.2s-13.6,15-14,15.7
				s-2.2,28.5,1.3,31.4s15.6,2.6,15.6,2.6s12.1,0.3,15.6-2.6s1.7-30.7,1.3-31.4C170.4,272,158.8,258.5,156.8,257.1z"/>
			<path id="Dpad_Down_Inner" class="st31" d="M156.8,257.1c-2-1.4-2.9-1.2-2.9-1.2s-0.9-0.2-2.9,1.2c-1.3,0.9-6.6,6.9-10.3,11.2
				c3.9,2.1,8.4,3.4,13.2,3.4s9.3-1.2,13.2-3.4C163.4,264,158.1,258,156.8,257.1z"/>
		</g>
	</g>
	<g id="Headphone_Group">
		<path id="Headphone_Bar" class="st8" d="M436.6,421h-67.9c-2.8,0-4.6,0.6-4.6-2.2l0,0c0-2.8,2.3-5,5-5H437c2.8,0,5,2.3,5,5l0,0
			C442.1,421.5,439.4,421,436.6,421z"/>
		<path id="Headphone_Slit" class="st16" d="M408.3,418.8h-36.5c-0.5,0-0.9-0.4-0.9-0.9l0,0c0-1.1,0.9-2,2-2h34.2c1.1,0,2,0.9,2,2
			l0,0C409.2,418.4,408.8,418.8,408.3,418.8z"/>
		<path id="Headphone_Jack" class="st16" d="M430.5,419.6h-4.2c-0.9,0-1.7-0.8-1.7-1.7l0,0c0-1.6,1.3-2.8,2.8-2.8h1.9
			c1.6,0,2.8,1.3,2.8,2.8l0,0C432.2,418.9,431.5,419.6,430.5,419.6z"/>
	</g>
	<g id="Touchpad_Group">
		<path id="Touchpad_Border" class="st15" d="M534.8,128c-0.4-3.2-3.3-5.6-6.5-5.6l0,0H403l0,0H277.7l0,0c-3.2,0-6.1,2.3-6.5,5.6
			c-0.1,0.7-0.1,1.4-0.1,2.1v127.4c0,8.9,7.2,16.1,16.1,16.1H403l0,0h115.8c8.9,0,16.1-7.2,16.1-16.1V130.1
			C535,129.4,534.9,128.7,534.8,128z"/>
		<g>
			<path id="Touchpad_Inner" class="st8" d="M530.4,124.3c0-1-0.8-1.9-1.9-1.9H403l0,0H277.4c-1,0-1.9,0.8-1.9,1.9v6v123.2
				c0,8.6,7,15.6,15.6,15.6H403l0,0h111.9c8.6,0,15.6-7,15.6-15.6V130.4L530.4,124.3z"/>
			<g class="st32">
				
					<pattern  id="Touchpad_Texture_2_" xlink:href="#Touchpad_Texture_1_" patternTransform="matrix(0.1017 0 0 -0.1017 -28973.8496 -3150.0999)"  class="st32">
				</pattern>
				<path id="Touchpad_Texture" class="st33" d="M275.5,253.5c0,8.6,7,15.6,15.6,15.6H403l0,0h111.9c8.6,0,15.6-7,15.6-15.6V147
					H275.6v106.5H275.5z"/>
			</g>
		</g>
	</g>
</g>
</svg>
